<?xml version="1.0" encoding="utf-8" standalone="no"?>
<!DOCTYPE svg PUBLIC "-//W3C//DTD SVG 1.1//EN"
  "http://www.w3.org/Graphics/SVG/1.1/DTD/svg11.dtd">
<svg xmlns:xlink="http://www.w3.org/1999/xlink" width="460.248281pt" height="470.157219pt" viewBox="0 0 460.248281 470.157219" xmlns="http://www.w3.org/2000/svg" version="1.1">
 <metadata>
  <rdf:RDF xmlns:dc="http://purl.org/dc/elements/1.1/" xmlns:cc="http://creativecommons.org/ns#" xmlns:rdf="http://www.w3.org/1999/02/22-rdf-syntax-ns#">
   <cc:Work>
    <dc:type rdf:resource="http://purl.org/dc/dcmitype/StillImage"/>
    <dc:date>2026-06-14T00:54:30.349216</dc:date>
    <dc:format>image/svg+xml</dc:format>
    <dc:creator>
     <cc:Agent>
      <dc:title>Matplotlib v3.10.8, https://matplotlib.org/</dc:title>
     </cc:Agent>
    </dc:creator>
   </cc:Work>
  </rdf:RDF>
 </metadata>
 <defs>
  <style type="text/css">*{stroke-linejoin: round; stroke-linecap: butt}</style>
 </defs>
 <g id="figure_1">
  <g id="patch_1">
   <path d="M 0 470.157219 
L 460.248281 470.157219 
L 460.248281 0 
L 0 0 
z
" style="fill: #ffffff"/>
  </g>
  <g id="axes_1">
   <g id="patch_2">
    <path d="M 63.301974 107.653761 
L 106.306127 107.653761 
Q 109.692281 107.653761 109.692281 104.462134 
L 109.692281 79.886602 
Q 109.692281 76.694975 106.306127 76.694975 
L 63.301974 76.694975 
Q 59.91582 76.694975 59.91582 79.886602 
L 59.91582 104.462134 
Q 59.91582 107.653761 63.301974 107.653761 
z
" clip-path="url(#p90abd015ab)" style="fill: #eaf4fa; stroke: #0072b2; stroke-width: 0.8; stroke-linejoin: miter"/>
   </g>
   <g id="patch_3">
    <path d="M 120.02005 107.653761 
L 163.024204 107.653761 
Q 166.410358 107.653761 166.410358 104.462134 
L 166.410358 79.886602 
Q 166.410358 76.694975 163.024204 76.694975 
L 120.02005 76.694975 
Q 116.633897 76.694975 116.633897 79.886602 
L 116.633897 104.462134 
Q 116.633897 107.653761 120.02005 107.653761 
z
" clip-path="url(#p90abd015ab)" style="fill: #eff7f2; stroke: #009e73; stroke-width: 0.8; stroke-linejoin: miter"/>
   </g>
   <g id="patch_4">
    <path d="M 176.738127 107.653761 
L 219.742281 107.653761 
Q 223.128435 107.653761 223.128435 104.462134 
L 223.128435 79.886602 
Q 223.128435 76.694975 219.742281 76.694975 
L 176.738127 76.694975 
Q 173.351974 76.694975 173.351974 79.886602 
L 173.351974 104.462134 
Q 173.351974 107.653761 176.738127 107.653761 
z
" clip-path="url(#p90abd015ab)" style="fill: #fcefe8; stroke: #d55e00; stroke-width: 0.8; stroke-linejoin: miter"/>
   </g>
   <g id="patch_5">
    <path d="M 78.539666 161.911429 
L 128.316127 161.911429 
Q 131.702281 161.911429 131.702281 158.719801 
L 131.702281 132.548456 
Q 131.702281 129.356828 128.316127 129.356828 
L 78.539666 129.356828 
Q 75.153512 129.356828 75.153512 132.548456 
L 75.153512 158.719801 
Q 75.153512 161.911429 78.539666 161.911429 
z
" clip-path="url(#p90abd015ab)" style="fill: #f3f4f6; stroke: #6b7280; stroke-width: 0.8; stroke-linejoin: miter"/>
   </g>
   <g id="patch_6">
    <path d="M 154.728127 161.911429 
L 204.504589 161.911429 
Q 207.890743 161.911429 207.890743 158.719801 
L 207.890743 132.548456 
Q 207.890743 129.356828 204.504589 129.356828 
L 154.728127 129.356828 
Q 151.341974 129.356828 151.341974 132.548456 
L 151.341974 158.719801 
Q 151.341974 161.911429 154.728127 161.911429 
z
" clip-path="url(#p90abd015ab)" style="fill: #f3f4f6; stroke: #6b7280; stroke-width: 0.8; stroke-linejoin: miter"/>
   </g>
   <g id="text_1">
    <text style="font-weight: 700; font-size: 8.2px; font-family: 'Arial'; text-anchor: middle; fill: #222222" x="84.80405" y="88.874195" transform="rotate(-0 84.80405 88.874195)">Input</text>
   </g>
   <g id="text_2">
    <text style="font-size: 5.6px; font-family: 'Arial'; fill: #374151" transform="translate(65.8953 91.657517)">Gene symbol +</text>
    <text style="font-size: 5.6px; font-family: 'Arial'; fill: #374151" transform="translate(59.741425 97.528286)">abundance Optional</text>
    <text style="font-size: 5.6px; font-family: 'Arial'; fill: #374151" transform="translate(63.327175 103.250917)">sample metadata</text>
   </g>
   <g id="text_3">
    <text style="font-weight: 700; font-size: 8.2px; font-family: 'Arial'; text-anchor: middle; fill: #222222" x="141.522127" y="88.874195" transform="rotate(-0 141.522127 88.874195)">Correlation</text>
   </g>
   <g id="text_4">
    <text style="font-size: 5.6px; font-family: 'Arial'; fill: #374151" transform="translate(117.23869 94.534277)">200 genes Pearson</text>
    <text style="font-size: 5.6px; font-family: 'Arial'; fill: #374151" transform="translate(130.161565 100.322533)">centroids</text>
   </g>
   <g id="text_5">
    <text style="font-weight: 700; font-size: 8.2px; font-family: 'Arial'; text-anchor: middle; fill: #222222" x="198.240204" y="88.874195" transform="rotate(-0 198.240204 88.874195)">Rescue</text>
   </g>
   <g id="text_6">
    <text style="font-size: 5.6px; font-family: 'Arial'; fill: #374151" transform="translate(171.786767 94.524717)">Top-3 pairwise model</text>
    <text style="font-size: 5.6px; font-family: 'Arial'; fill: #374151" transform="translate(177.849642 100.266467)">margin &lt;= 0.002</text>
   </g>
   <g id="patch_7">
    <path d="M 109.662231 92.174368 
Q 113.163781 92.174368 115.547297 92.174368 
" style="fill: none; stroke: #6b7280; stroke-linecap: round"/>
    <path d="M 112.347297 90.574368 
L 115.547297 92.174368 
L 112.347297 93.774368 
z
" style="fill: #6b7280; stroke: #6b7280; stroke-linecap: round"/>
   </g>
   <g id="patch_8">
    <path d="M 166.380308 92.174368 
Q 169.881858 92.174368 172.265374 92.174368 
" style="fill: none; stroke: #6b7280; stroke-linecap: round"/>
    <path d="M 169.065374 90.574368 
L 172.265374 92.174368 
L 169.065374 93.774368 
z
" style="fill: #6b7280; stroke: #6b7280; stroke-linecap: round"/>
   </g>
   <g id="text_7">
    <text style="font-weight: 700; font-size: 8.2px; font-family: 'Arial'; text-anchor: middle; fill: #222222" x="103.427897" y="142.014793" transform="rotate(-0 103.427897 142.014793)">Interfaces</text>
   </g>
   <g id="text_8">
    <text style="font-size: 5.8px; font-family: 'Arial'; fill: #374151" transform="translate(91.986944 148.191464)">Streamlit</text>
    <text style="font-size: 5.8px; font-family: 'Arial'; fill: #374151" transform="translate(84.731959 154.118475)">Command line</text>
   </g>
   <g id="text_9">
    <text style="font-weight: 700; font-size: 8.2px; font-family: 'Arial'; text-anchor: middle; fill: #222222" x="179.616358" y="142.064762" transform="rotate(-0 179.616358 142.064762)">Outputs</text>
   </g>
   <g id="text_10">
    <text style="font-size: 5.8px; font-family: 'Arial'; fill: #374151" transform="translate(163.062796 148.118194)">Lobe | Broad</text>
    <text style="font-size: 5.8px; font-family: 'Arial'; fill: #374151" transform="translate(156.298093 154.194464)">Network | Region*</text>
   </g>
   <g id="patch_9">
    <path d="M 197.0603 107.356416 
Q 188.927105 118.506908 181.452763 128.754121 
" style="fill: none; stroke: #6b7280; stroke-linecap: round"/>
    <path d="M 184.631179 127.111661 
L 181.452763 128.754121 
L 182.045845 125.225913 
z
" style="fill: #6b7280; stroke: #6b7280; stroke-linecap: round"/>
   </g>
   <g id="patch_10">
    <path d="M 131.669957 145.634129 
Q 141.521671 145.634129 150.255351 145.634129 
" style="fill: none; stroke: #6b7280; stroke-linecap: round"/>
    <path d="M 147.055351 144.034129 
L 150.255351 145.634129 
L 147.055351 147.234129 
z
" style="fill: #6b7280; stroke: #6b7280; stroke-linecap: round"/>
   </g>
   <g id="text_11">
    <g id="patch_11">
     <path d="M 73.845448 202.356564 
L 209.198807 202.356564 
Q 211.473807 202.356564 211.473807 200.081564 
L 211.473807 186.935518 
Q 211.473807 184.660518 209.198807 184.660518 
L 73.845448 184.660518 
Q 71.570448 184.660518 71.570448 186.935518 
L 71.570448 200.081564 
Q 71.570448 202.356564 73.845448 202.356564 
z
" style="fill: #ffffff; stroke: #0072b2; stroke-linejoin: miter"/>
    </g>
    <text style="font-size: 6.5px; font-family: 'Arial'; fill: #222222" transform="translate(73.845448 191.667314)">Confidence, margin, entropy, marker coverage,</text>
    <text style="font-size: 6.5px; font-family: 'Arial'; fill: #222222" transform="translate(82.994706 198.713518)">rescue status and out-of-scope warnings</text>
   </g>
   <g id="text_12">
    <text style="font-weight: 700; font-size: 9px; font-family: 'Arial'; text-anchor: start; fill: #222222" x="56.868281" y="56.088279" transform="rotate(-0 56.868281 56.088279)">A  Software workflow</text>
   </g>
   <g id="text_13">
    <text style="font-size: 5.8px; font-family: 'Arial'; text-anchor: middle; fill: #d55e00" x="141.522127" y="215.849933" transform="rotate(-0 141.522127 215.849933)">*Exploratory; cerebellum is outside the current reference</text>
   </g>
  </g>
  <g id="axes_2">
   <g id="patch_12">
    <path d="M 283.740589 220.637375 
L 453.048281 220.637375 
L 453.048281 61.056 
L 283.740589 61.056 
z
" style="fill: #ffffff"/>
   </g>
   <g id="patch_13">
    <path d="M 291.436393 220.637375 
L 322.586077 220.637375 
L 322.586077 131.590968 
L 291.436393 131.590968 
z
" clip-path="url(#p5b011c40c4)" style="fill: #0072b2"/>
   </g>
   <g id="patch_14">
    <path d="M 383.05311 220.637375 
L 414.202793 220.637375 
L 414.202793 135.740083 
L 383.05311 135.740083 
z
" clip-path="url(#p5b011c40c4)" style="fill: #0072b2"/>
   </g>
   <g id="patch_15">
    <path d="M 322.586077 220.637375 
L 353.73576 220.637375 
L 353.73576 80.205765 
L 322.586077 80.205765 
z
" clip-path="url(#p5b011c40c4)" style="fill: #e69f00"/>
   </g>
   <g id="patch_16">
    <path d="M 414.202793 220.637375 
L 445.352477 220.637375 
L 445.352477 82.280323 
L 414.202793 82.280323 
z
" clip-path="url(#p5b011c40c4)" style="fill: #e69f00"/>
   </g>
   <g id="matplotlib.axis_1">
    <g id="xtick_1">
     <g id="line2d_1">
      <defs>
       <path id="m77ddc53a3b" d="M 0 0 
L 0 3.5 
" style="stroke: #222222; stroke-width: 0.8"/>
      </defs>
      <g>
       <use xlink:href="#m77ddc53a3b" x="322.586077" y="220.637375" style="fill: #222222; stroke: #222222; stroke-width: 0.8"/>
      </g>
     </g>
     <g id="text_14">
      <text style="font-size: 7px; font-family: 'Arial'; text-anchor: middle; fill: #222222" x="322.586077" y="232.647843" transform="rotate(-0 322.586077 232.647843)">LOSO</text>
     </g>
    </g>
    <g id="xtick_2">
     <g id="line2d_2">
      <g>
       <use xlink:href="#m77ddc53a3b" x="414.202793" y="220.637375" style="fill: #222222; stroke: #222222; stroke-width: 0.8"/>
      </g>
     </g>
     <g id="text_15">
      <text style="font-size: 7px; font-family: 'Arial'; text-anchor: middle; fill: #222222" x="414.202793" y="232.647843" transform="rotate(-0 414.202793 232.647843)">LOMO</text>
     </g>
    </g>
   </g>
   <g id="matplotlib.axis_2">
    <g id="ytick_1">
     <g id="line2d_3">
      <defs>
       <path id="m4fb2b4064b" d="M 0 0 
L -3.5 0 
" style="stroke: #222222; stroke-width: 0.8"/>
      </defs>
      <g>
       <use xlink:href="#m4fb2b4064b" x="283.740589" y="220.637375" style="fill: #222222; stroke: #222222; stroke-width: 0.8"/>
      </g>
     </g>
     <g id="text_16">
      <text style="font-size: 7px; font-family: 'Arial'; text-anchor: end; fill: #222222" x="276.740589" y="223.142609" transform="rotate(-0 276.740589 223.142609)">0.0</text>
     </g>
    </g>
    <g id="ytick_2">
     <g id="line2d_4">
      <g>
       <use xlink:href="#m4fb2b4064b" x="283.740589" y="188.7211" style="fill: #222222; stroke: #222222; stroke-width: 0.8"/>
      </g>
     </g>
     <g id="text_17">
      <text style="font-size: 7px; font-family: 'Arial'; text-anchor: end; fill: #222222" x="276.740589" y="191.226334" transform="rotate(-0 276.740589 191.226334)">0.2</text>
     </g>
    </g>
    <g id="ytick_3">
     <g id="line2d_5">
      <g>
       <use xlink:href="#m4fb2b4064b" x="283.740589" y="156.804825" style="fill: #222222; stroke: #222222; stroke-width: 0.8"/>
      </g>
     </g>
     <g id="text_18">
      <text style="font-size: 7px; font-family: 'Arial'; text-anchor: end; fill: #222222" x="276.740589" y="159.310059" transform="rotate(-0 276.740589 159.310059)">0.4</text>
     </g>
    </g>
    <g id="ytick_4">
     <g id="line2d_6">
      <g>
       <use xlink:href="#m4fb2b4064b" x="283.740589" y="124.88855" style="fill: #222222; stroke: #222222; stroke-width: 0.8"/>
      </g>
     </g>
     <g id="text_19">
      <text style="font-size: 7px; font-family: 'Arial'; text-anchor: end; fill: #222222" x="276.740589" y="127.393784" transform="rotate(-0 276.740589 127.393784)">0.6</text>
     </g>
    </g>
    <g id="ytick_5">
     <g id="line2d_7">
      <g>
       <use xlink:href="#m4fb2b4064b" x="283.740589" y="92.972275" style="fill: #222222; stroke: #222222; stroke-width: 0.8"/>
      </g>
     </g>
     <g id="text_20">
      <text style="font-size: 7px; font-family: 'Arial'; text-anchor: end; fill: #222222" x="276.740589" y="95.477509" transform="rotate(-0 276.740589 95.477509)">0.8</text>
     </g>
    </g>
    <g id="ytick_6">
     <g id="line2d_8">
      <g>
       <use xlink:href="#m4fb2b4064b" x="283.740589" y="61.056" style="fill: #222222; stroke: #222222; stroke-width: 0.8"/>
      </g>
     </g>
     <g id="text_21">
      <text style="font-size: 7px; font-family: 'Arial'; text-anchor: end; fill: #222222" x="276.740589" y="63.561234" transform="rotate(-0 276.740589 63.561234)">1.0</text>
     </g>
    </g>
    <g id="text_22">
     <text style="font-size: 8px; font-family: 'Arial'; text-anchor: middle; fill: #222222" x="261.326839" y="140.846687" transform="rotate(-90 261.326839 140.846687)">Network accuracy</text>
    </g>
   </g>
   <g id="patch_17">
    <path d="M 283.740589 220.637375 
L 283.740589 61.056 
" style="fill: none; stroke: #222222; stroke-width: 0.7; stroke-linejoin: miter; stroke-linecap: square"/>
   </g>
   <g id="patch_18">
    <path d="M 453.048281 220.637375 
L 453.048281 61.056 
" style="fill: none; stroke: #222222; stroke-width: 0.7; stroke-linejoin: miter; stroke-linecap: square"/>
   </g>
   <g id="patch_19">
    <path d="M 283.740589 220.637375 
L 453.048281 220.637375 
" style="fill: none; stroke: #222222; stroke-width: 0.7; stroke-linejoin: miter; stroke-linecap: square"/>
   </g>
   <g id="patch_20">
    <path d="M 283.740589 61.056 
L 453.048281 61.056 
" style="fill: none; stroke: #222222; stroke-width: 0.7; stroke-linejoin: miter; stroke-linecap: square"/>
   </g>
   <g id="text_23">
    <text style="font-size: 6.3px; font-family: 'Arial'; text-anchor: middle; fill: #222222" x="307.011235" y="127.601433" transform="rotate(-0 307.011235 127.601433)">55.8%</text>
   </g>
   <g id="text_24">
    <text style="font-size: 6.3px; font-family: 'Arial'; text-anchor: middle; fill: #222222" x="398.627952" y="131.750549" transform="rotate(-0 398.627952 131.750549)">53.2%</text>
   </g>
   <g id="text_25">
    <text style="font-size: 6.3px; font-family: 'Arial'; text-anchor: middle; fill: #222222" x="338.160919" y="76.216231" transform="rotate(-0 338.160919 76.216231)">88.0%</text>
   </g>
   <g id="text_26">
    <text style="font-size: 6.3px; font-family: 'Arial'; text-anchor: middle; fill: #222222" x="429.777635" y="78.290788" transform="rotate(-0 429.777635 78.290788)">86.7%</text>
   </g>
   <g id="text_27">
    <text style="font-weight: 700; font-size: 9px; font-family: 'Arial'; text-anchor: start; fill: #222222" x="283.740589" y="55.056" transform="rotate(-0 283.740589 55.056)">B  Internal validation</text>
   </g>
   <g id="legend_1">
    <g id="patch_21">
     <path d="M 329.603654 71.577875 
L 342.603654 71.577875 
L 342.603654 67.027875 
L 329.603654 67.027875 
z
" style="fill: #0072b2"/>
    </g>
    <g id="text_28">
     <text style="font-size: 6.5px; font-family: 'Arial'; text-anchor: start; fill: #222222" x="347.803654" y="71.577875" transform="rotate(-0 347.803654 71.577875)">Top1</text>
    </g>
    <g id="patch_22">
     <path d="M 374.894435 71.577875 
L 387.894435 71.577875 
L 387.894435 67.027875 
L 374.894435 67.027875 
z
" style="fill: #e69f00"/>
    </g>
    <g id="text_29">
     <text style="font-size: 6.5px; font-family: 'Arial'; text-anchor: start; fill: #222222" x="393.094435" y="71.577875" transform="rotate(-0 393.094435 71.577875)">Top3</text>
    </g>
   </g>
  </g>
  <g id="axes_3">
   <g id="patch_23">
    <path d="M 56.868281 438.048 
L 226.175974 438.048 
L 226.175974 286.065738 
L 56.868281 286.065738 
z
" style="fill: #ffffff"/>
   </g>
   <g id="patch_24">
    <path d="M 56.868281 292.974023 
L 112.062589 292.974023 
L 112.062589 322.061537 
L 56.868281 322.061537 
z
" clip-path="url(#p20e7da5b7c)" style="fill: #56b4e9"/>
   </g>
   <g id="patch_25">
    <path d="M 56.868281 329.333416 
L 150.664743 329.333416 
L 150.664743 358.42093 
L 56.868281 358.42093 
z
" clip-path="url(#p20e7da5b7c)" style="fill: #0072b2"/>
   </g>
   <g id="patch_26">
    <path d="M 56.868281 365.692808 
L 184.526281 365.692808 
L 184.526281 394.780323 
L 56.868281 394.780323 
z
" clip-path="url(#p20e7da5b7c)" style="fill: #009e73"/>
   </g>
   <g id="patch_27">
    <path d="M 56.868281 402.052201 
L 197.562974 402.052201 
L 197.562974 431.139715 
L 56.868281 431.139715 
z
" clip-path="url(#p20e7da5b7c)" style="fill: #e69f00"/>
   </g>
   <g id="matplotlib.axis_3">
    <g id="xtick_3">
     <g id="line2d_9">
      <g>
       <use xlink:href="#m77ddc53a3b" x="56.868281" y="438.048" style="fill: #222222; stroke: #222222; stroke-width: 0.8"/>
      </g>
     </g>
     <g id="text_30">
      <text style="font-size: 7px; font-family: 'Arial'; text-anchor: middle; fill: #222222" x="56.868281" y="450.058469" transform="rotate(-0 56.868281 450.058469)">0.0</text>
     </g>
    </g>
    <g id="xtick_4">
     <g id="line2d_10">
      <g>
       <use xlink:href="#m77ddc53a3b" x="90.72982" y="438.048" style="fill: #222222; stroke: #222222; stroke-width: 0.8"/>
      </g>
     </g>
     <g id="text_31">
      <text style="font-size: 7px; font-family: 'Arial'; text-anchor: middle; fill: #222222" x="90.72982" y="450.058469" transform="rotate(-0 90.72982 450.058469)">0.2</text>
     </g>
    </g>
    <g id="xtick_5">
     <g id="line2d_11">
      <g>
       <use xlink:href="#m77ddc53a3b" x="124.591358" y="438.048" style="fill: #222222; stroke: #222222; stroke-width: 0.8"/>
      </g>
     </g>
     <g id="text_32">
      <text style="font-size: 7px; font-family: 'Arial'; text-anchor: middle; fill: #222222" x="124.591358" y="450.058469" transform="rotate(-0 124.591358 450.058469)">0.4</text>
     </g>
    </g>
    <g id="xtick_6">
     <g id="line2d_12">
      <g>
       <use xlink:href="#m77ddc53a3b" x="158.452897" y="438.048" style="fill: #222222; stroke: #222222; stroke-width: 0.8"/>
      </g>
     </g>
     <g id="text_33">
      <text style="font-size: 7px; font-family: 'Arial'; text-anchor: middle; fill: #222222" x="158.452897" y="450.058469" transform="rotate(-0 158.452897 450.058469)">0.6</text>
     </g>
    </g>
    <g id="xtick_7">
     <g id="line2d_13">
      <g>
       <use xlink:href="#m77ddc53a3b" x="192.314435" y="438.048" style="fill: #222222; stroke: #222222; stroke-width: 0.8"/>
      </g>
     </g>
     <g id="text_34">
      <text style="font-size: 7px; font-family: 'Arial'; text-anchor: middle; fill: #222222" x="192.314435" y="450.058469" transform="rotate(-0 192.314435 450.058469)">0.8</text>
     </g>
    </g>
    <g id="xtick_8">
     <g id="line2d_14">
      <g>
       <use xlink:href="#m77ddc53a3b" x="226.175974" y="438.048" style="fill: #222222; stroke: #222222; stroke-width: 0.8"/>
      </g>
     </g>
     <g id="text_35">
      <text style="font-size: 7px; font-family: 'Arial'; text-anchor: middle; fill: #222222" x="226.175974" y="450.058469" transform="rotate(-0 226.175974 450.058469)">1.0</text>
     </g>
    </g>
    <g id="text_36">
     <text style="font-size: 8px; font-family: 'Arial'; text-anchor: middle; fill: #222222" x="141.522127" y="461.273469" transform="rotate(-0 141.522127 461.273469)">Accuracy / candidate coverage</text>
    </g>
   </g>
   <g id="matplotlib.axis_4">
    <g id="ytick_7">
     <g id="line2d_15">
      <g>
       <use xlink:href="#m4fb2b4064b" x="56.868281" y="307.51778" style="fill: #222222; stroke: #222222; stroke-width: 0.8"/>
      </g>
     </g>
     <g id="text_37">
      <text style="font-size: 7px; font-family: 'Arial'; fill: #222222" transform="translate(30.805313 306.811764)">AHBA</text>
      <text style="font-size: 7px; font-family: 'Arial'; fill: #222222" transform="translate(7.2 314.240514)">Network Top1</text>
     </g>
    </g>
    <g id="ytick_8">
     <g id="line2d_16">
      <g>
       <use xlink:href="#m4fb2b4064b" x="56.868281" y="343.877173" style="fill: #222222; stroke: #222222; stroke-width: 0.8"/>
      </g>
     </g>
     <g id="text_38">
      <text style="font-size: 7px; font-family: 'Arial'; fill: #222222" transform="translate(30.805313 343.171157)">AHBA</text>
      <text style="font-size: 7px; font-family: 'Arial'; fill: #222222" transform="translate(7.2 350.599907)">Network Top3</text>
     </g>
    </g>
    <g id="ytick_9">
     <g id="line2d_17">
      <g>
       <use xlink:href="#m4fb2b4064b" x="56.868281" y="380.236566" style="fill: #222222; stroke: #222222; stroke-width: 0.8"/>
      </g>
     </g>
     <g id="text_39">
      <text style="font-size: 7px; font-family: 'Arial'; fill: #222222" transform="translate(7.850781 379.53055)">Glioma broad</text>
      <text style="font-size: 7px; font-family: 'Arial'; fill: #222222" transform="translate(17.973438 386.9593)">Top3 strict</text>
     </g>
    </g>
    <g id="ytick_10">
     <g id="line2d_18">
      <g>
       <use xlink:href="#m4fb2b4064b" x="56.868281" y="416.595958" style="fill: #222222; stroke: #222222; stroke-width: 0.8"/>
      </g>
     </g>
     <g id="text_40">
      <text style="font-size: 7px; font-family: 'Arial'; fill: #222222" transform="translate(7.850781 415.889943)">Glioma broad</text>
      <text style="font-size: 7px; font-family: 'Arial'; fill: #222222" transform="translate(9.402813 423.318693)">Top3 tolerant</text>
     </g>
    </g>
   </g>
   <g id="patch_28">
    <path d="M 56.868281 438.048 
L 56.868281 286.065738 
" style="fill: none; stroke: #222222; stroke-width: 0.7; stroke-linejoin: miter; stroke-linecap: square"/>
   </g>
   <g id="patch_29">
    <path d="M 226.175974 438.048 
L 226.175974 286.065738 
" style="fill: none; stroke: #222222; stroke-width: 0.7; stroke-linejoin: miter; stroke-linecap: square"/>
   </g>
   <g id="patch_30">
    <path d="M 56.868281 438.048 
L 226.175974 438.048 
" style="fill: none; stroke: #222222; stroke-width: 0.7; stroke-linejoin: miter; stroke-linecap: square"/>
   </g>
   <g id="patch_31">
    <path d="M 56.868281 286.065738 
L 226.175974 286.065738 
" style="fill: none; stroke: #222222; stroke-width: 0.7; stroke-linejoin: miter; stroke-linecap: square"/>
   </g>
   <g id="text_41">
    <text style="font-size: 6.3px; font-family: 'Arial'; text-anchor: start; fill: #222222" x="115.448743" y="309.146429" transform="rotate(-0 115.448743 309.146429)">32.6%</text>
   </g>
   <g id="text_42">
    <text style="font-size: 6.3px; font-family: 'Arial'; text-anchor: start; fill: #222222" x="154.050897" y="345.505821" transform="rotate(-0 154.050897 345.505821)">55.4%</text>
   </g>
   <g id="text_43">
    <text style="font-size: 6.3px; font-family: 'Arial'; text-anchor: start; fill: #222222" x="187.912435" y="381.865214" transform="rotate(-0 187.912435 381.865214)">75.4%</text>
   </g>
   <g id="text_44">
    <text style="font-size: 6.3px; font-family: 'Arial'; text-anchor: start; fill: #222222" x="200.949127" y="418.224607" transform="rotate(-0 200.949127 418.224607)">83.1%</text>
   </g>
   <g id="text_45">
    <text style="font-weight: 700; font-size: 9px; font-family: 'Arial'; text-anchor: start; fill: #222222" x="56.868281" y="280.065738" transform="rotate(-0 56.868281 280.065738)">C  External coarse-resolution evaluation</text>
   </g>
  </g>
  <g id="axes_4">
   <g id="patch_32">
    <path d="M 291.867358 342.60314 
L 356.881512 342.60314 
Q 360.267666 342.60314 360.267666 339.563494 
L 360.267666 305.519468 
Q 360.267666 302.479823 356.881512 302.479823 
L 291.867358 302.479823 
Q 288.481204 302.479823 288.481204 305.519468 
L 288.481204 339.563494 
Q 288.481204 342.60314 291.867358 342.60314 
z
" clip-path="url(#p1a270c715c)" style="fill: #e2f0d9; stroke: #009e73; stroke-width: 0.8; stroke-linejoin: miter"/>
   </g>
   <g id="patch_33">
    <path d="M 379.907358 342.60314 
L 444.921512 342.60314 
Q 448.307666 342.60314 448.307666 339.563494 
L 448.307666 305.519468 
Q 448.307666 302.479823 444.921512 302.479823 
L 379.907358 302.479823 
Q 376.521204 302.479823 376.521204 305.519468 
L 376.521204 339.563494 
Q 376.521204 342.60314 379.907358 342.60314 
z
" clip-path="url(#p1a270c715c)" style="fill: #fcefe8; stroke: #d55e00; stroke-width: 0.8; stroke-linejoin: miter"/>
   </g>
   <g id="patch_34">
    <path d="M 312.184281 406.43569 
L 424.604589 406.43569 
Q 427.990743 406.43569 427.990743 403.396044 
L 427.990743 372.391663 
Q 427.990743 369.352018 424.604589 369.352018 
L 312.184281 369.352018 
Q 308.798127 369.352018 308.798127 372.391663 
L 308.798127 403.396044 
Q 308.798127 406.43569 312.184281 406.43569 
z
" clip-path="url(#p1a270c715c)" style="fill: #f3f4f6; stroke: #6b7280; stroke-width: 0.8; stroke-linejoin: miter"/>
   </g>
   <g id="text_46">
    <text style="font-weight: 700; font-size: 8.2px; font-family: 'Arial'; text-anchor: middle; fill: #222222" x="324.374435" y="317.371926" transform="rotate(-0 324.374435 317.371926)">With truth</text>
   </g>
   <g id="text_47">
    <text style="font-size: 5.8px; font-family: 'Arial'; fill: #374151" transform="translate(302.538341 326.18533)">Accuracy Strict +</text>
    <text style="font-size: 5.8px; font-family: 'Arial'; fill: #374151" transform="translate(314.702482 332.180309)">tolerant</text>
   </g>
   <g id="text_48">
    <text style="font-weight: 700; font-size: 8.2px; font-family: 'Arial'; text-anchor: middle; fill: #222222" x="412.414435" y="317.371926" transform="rotate(-0 412.414435 317.371926)">Without truth</text>
   </g>
   <g id="text_49">
    <text style="font-size: 5.8px; font-family: 'Arial'; fill: #374151" transform="translate(393.187435 323.18648)">Transfer stress</text>
    <text style="font-size: 5.8px; font-family: 'Arial'; fill: #374151" transform="translate(390.818498 329.113491)">test No accuracy</text>
    <text style="font-size: 5.8px; font-family: 'Arial'; fill: #374151" transform="translate(405.647466 335.108471)">claim</text>
   </g>
   <g id="text_50">
    <text style="font-weight: 700; font-size: 8.2px; font-family: 'Arial'; text-anchor: middle; fill: #222222" x="368.394435" y="383.278415" transform="rotate(-0 368.394435 383.278415)">Diagnostics</text>
   </g>
   <g id="text_51">
    <text style="font-size: 5.8px; font-family: 'Arial'; fill: #374151" transform="translate(337.283326 388.040032)">Top3 | margin | entropy |</text>
    <text style="font-size: 5.8px; font-family: 'Arial'; fill: #374151" transform="translate(335.887248 394.116303)">coverage stability | scope</text>
    <text style="font-size: 5.8px; font-family: 'Arial'; fill: #374151" transform="translate(358.239451 400.111282)">warning</text>
   </g>
   <g id="patch_35">
    <path d="M 325.604148 342.356317 
Q 336.224952 355.976269 346.158241 368.714562 
" style="fill: none; stroke: #6b7280; stroke-linecap: round"/>
    <path d="M 345.452185 365.207215 
L 346.158241 368.714562 
L 342.92873 367.174999 
z
" style="fill: #6b7280; stroke: #6b7280; stroke-linecap: round"/>
   </g>
   <g id="patch_36">
    <path d="M 411.184722 342.356317 
Q 400.563918 355.976269 390.630629 368.714562 
" style="fill: none; stroke: #6b7280; stroke-linecap: round"/>
    <path d="M 393.860141 367.174999 
L 390.630629 368.714562 
L 391.336685 365.207215 
z
" style="fill: #6b7280; stroke: #6b7280; stroke-linecap: round"/>
   </g>
   <g id="text_52">
    <text style="font-weight: 700; font-size: 9px; font-family: 'Arial'; text-anchor: start; fill: #222222" x="283.740589" y="280.065738" transform="rotate(-0 283.740589 280.065738)">D  Interpretation policy</text>
   </g>
  </g>
  <g id="text_53">
   <text style="font-weight: 700; font-size: 11px; font-family: 'Arial'; text-anchor: middle; fill: #222222" x="248.568281" y="15.207656" transform="rotate(-0 248.568281 15.207656)">cfRNA-BrainTrace: implementation and validation</text>
  </g>
 </g>
 <defs>
  <clipPath id="p90abd015ab">
   <rect x="56.868281" y="61.056" width="169.307692" height="159.581375"/>
  </clipPath>
  <clipPath id="p5b011c40c4">
   <rect x="283.740589" y="61.056" width="169.307692" height="159.581375"/>
  </clipPath>
  <clipPath id="p20e7da5b7c">
   <rect x="56.868281" y="286.065738" width="169.307692" height="151.982262"/>
  </clipPath>
  <clipPath id="p1a270c715c">
   <rect x="283.740589" y="286.065738" width="169.307692" height="151.982262"/>
  </clipPath>
 </defs>
</svg>
